<svg width="24" height="24" viewBox="0 0 24 24" stroke="#fff" fill="none" xmlns="http://www.w3.org/2000/svg">
<path d="M11 2.99994H5C4.46957 2.99994 3.96086 3.21066 3.58579 3.58573C3.21071 3.9608 3 4.46951 3 4.99994V20.9999L7 16.9999H19C19.5304 16.9999 20.0391 16.7892 20.4142 16.4141C20.7893 16.0391 21 15.5304 21 14.9999V12.2999M21 6C18 7 18 7 17 9.99999C16 7 16 7 13 6C16 4.99994 16 4.99994 17 2C18 5 18 5 21 6ZM13.5 11.5C11.5 12.5 12 12 11 14C10 12 10.5 12.5 8.5 11.5C10.5 10.5 10 11 11 9C12 11 11.5 10.5 13.5 11.5Z"  stroke-width="1.5" stroke-linecap="round" stroke-linejoin="round"/>
</svg>
